/* XPM */
static char * eclipse_xpm[] = {
"48 48 218 2",
"  	c None",
". 	c #2FD0A9",
"+ 	c #2ED4AC",
"@ 	c #2EC39F",
"# 	c #359E85",
"$ 	c #2EC4A0",
"% 	c #2CAD8D",
"& 	c #2FC9A4",
"* 	c #2EC29E",
"= 	c #2EC09D",
"- 	c #2ECDA7",
"; 	c #2CAB8C",
"> 	c #30C5A1",
", 	c #2DC6A1",
"' 	c #2EC7A2",
") 	c #299B7F",
"! 	c #2EC19E",
"~ 	c #2EC9A4",
"{ 	c #2CBA98",
"] 	c #2ED3AC",
"^ 	c #2DC29E",
"/ 	c #2ECEA8",
"( 	c #2AA588",
"_ 	c #2FCBA5",
": 	c #2FBF9D",
"< 	c #93907A",
"[ 	c #2CBC99",
"} 	c #2EBD9A",
"| 	c #2FCAA4",
"1 	c #2BA487",
"2 	c #2AA587",
"3 	c #B7B395",
"4 	c #C0BD9D",
"5 	c #C2BF9E",
"6 	c #B8B596",
"7 	c #A6A388",
"8 	c #2DB796",
"9 	c #2ED3AB",
"0 	c #2DC7A2",
"a 	c #2ED2AA",
"b 	c #2DD0A9",
"c 	c #2DB595",
"d 	c #2FD3AB",
"e 	c #2CAE8F",
"f 	c #BAB799",
"g 	c #CCC8A7",
"h 	c #D9D5B1",
"i 	c #E8E4BC",
"j 	c #DDD9B3",
"k 	c #BBB899",
"l 	c #A19E84",
"m 	c #2BA689",
"n 	c #2ED1A9",
"o 	c #2CC9A3",
"p 	c #2AC09C",
"q 	c #2ABE9B",
"r 	c #2BC09C",
"s 	c #26977C",
"t 	c #29AF8F",
"u 	c #28B593",
"v 	c #2AC29E",
"w 	c #2DB997",
"x 	c #2CBF9B",
"y 	c #2FD4AC",
"z 	c #2BB191",
"A 	c #2DBF9C",
"B 	c #32A286",
"C 	c #B8B597",
"D 	c #CECAA8",
"E 	c #E0DBB6",
"F 	c #F5F0C6",
"G 	c #F0EBC3",
"H 	c #E5E1BA",
"I 	c #DAD6B1",
"J 	c #BEBB9B",
"K 	c #A7A489",
"L 	c #27AA8A",
"M 	c #26B08F",
"N 	c #26B190",
"O 	c #27B391",
"P 	c #279F82",
"Q 	c #298670",
"R 	c #27B291",
"S 	c #29AD8D",
"T 	c #29A386",
"U 	c #719C68",
"V 	c #DBC246",
"W 	c #C9AC0F",
"X 	c #47A673",
"Y 	c #44A386",
"Z 	c #DEDAB4",
"` 	c #EDE8BF",
" .	c #E7E2BB",
"..	c #D9D5B0",
"+.	c #C3C09F",
"@.	c #A5A186",
"#.	c #25997D",
"$.	c #28B493",
"%.	c #248C74",
"&.	c #25967B",
"*.	c #259278",
"=.	c #2EC9A3",
"-.	c #30AC8A",
";.	c #F2E398",
">.	c #B9B9B9",
",.	c #3E3507",
"'.	c #AF9F16",
").	c #28A083",
"!.	c #B6B294",
"~.	c #CCC8A6",
"{.	c #AFAC8F",
"].	c #25836D",
"^.	c #26A687",
"/.	c #28B794",
"(.	c #27B492",
"_.	c #259379",
":.	c #24987C",
"<.	c #268F75",
"[.	c #2ED1AA",
"}.	c #36A480",
"|.	c #C3A40C",
"1.	c #080808",
"2.	c #231E07",
"3.	c #BCA10C",
"4.	c #27AF8F",
"5.	c #38826B",
"6.	c #279278",
"7.	c #248F76",
"8.	c #247D67",
"9.	c #2CCBA5",
"0.	c #2ECBA6",
"a.	c #A8A01E",
"b.	c #A38908",
"c.	c #C9AA0A",
"d.	c #648C41",
"e.	c #23957A",
"f.	c #2A9A7F",
"g.	c #2BA084",
"h.	c #297F6A",
"i.	c #26AB8B",
"j.	c #227C66",
"k.	c #27AD8D",
"l.	c #2BC59F",
"m.	c #2DBF9B",
"n.	c #599F5F",
"o.	c #449265",
"p.	c #26AD8D",
"q.	c #238E75",
"r.	c #2DCEA7",
"s.	c #28B795",
"t.	c #27AE8E",
"u.	c #239177",
"v.	c #1F7762",
"w.	c #23876F",
"x.	c #23846C",
"y.	c #27B290",
"z.	c #28B996",
"A.	c #2ABE9A",
"B.	c #2BC19D",
"C.	c #2ABF9B",
"D.	c #26AC8C",
"E.	c #2BB493",
"F.	c #2EBE9B",
"G.	c #2CCAA4",
"H.	c #27B190",
"I.	c #28AA8B",
"J.	c #24977B",
"K.	c #227B66",
"L.	c #268871",
"M.	c #28997E",
"N.	c #2A9B80",
"O.	c #269076",
"P.	c #238E74",
"Q.	c #26A284",
"R.	c #279178",
"S.	c #328C76",
"T.	c #259076",
"U.	c #27AC8C",
"V.	c #26A788",
"W.	c #24957A",
"X.	c #2FD1AA",
"Y.	c #28B895",
"Z.	c #26AA8A",
"`.	c #529182",
" +	c #8BBEB1",
".+	c #91C9BA",
"++	c #678B82",
"@+	c #27B493",
"#+	c #549786",
"$+	c #A3E2D2",
"%+	c #92CABC",
"&+	c #8DC1B4",
"*+	c #2CB090",
"=+	c #2A9379",
"-+	c #9BD5C6",
";+	c #97D1C2",
">+	c #92C9BA",
",+	c #729A90",
"'+	c #28B08F",
")+	c #4A9583",
"!+	c #93CBBD",
"~+	c #71978E",
"{+	c #28A486",
"]+	c #457B6E",
"^+	c #29A688",
"/+	c #26A183",
"(+	c #29A486",
"_+	c #249177",
":+	c #23846D",
"<+	c #27A184",
"[+	c #379F86",
"}+	c #3CB497",
"|+	c #27977C",
"1+	c #2E9B81",
"2+	c #28A082",
"3+	c #249076",
"4+	c #269A7E",
"5+	c #248A71",
"                                                                                                ",
"                                                                                                ",
"                                                                                                ",
"                                                                                                ",
"                                                                                                ",
"                                                                                                ",
"                                                                                                ",
"                                                                                                ",
"                            .                                                                   ",
"                            + @                                                                 ",
"                            + +                                                                 ",
"  # $ %                     & + *                                                               ",
"    = + - ;                 > + +                                                               ",
"      , + + ' )               + + !                                                             ",
"        ~ + + + {             + + ]                                                             ",
"          ^ + + + / (         _ + + :                                                     <     ",
"            @ + + + + [       } + + |           1 1 2                           3 4 5 6 7       ",
"              8 + + + 9 0       a b +       c + + + + d e             f g h i j k l             ",
"                m n o p q r s   t u v w   x + + + y z A + B C D E F G H I J K                   ",
"                    L M N N O P Q M R S T + + + + U V W X Y Z `  ...+.@.                        ",
"                      #.M M R $.%.&.M *.=.+ + + -.;.>.,.'.).!.~.{.                              ",
"                        ].^.R /.(._.:.<.[.+ + + }.|.1.2.3.4.5.                                  ",
"                            6.4.O N 7.8.9.9 + + 0.a.b.c.d.M e.                                  ",
"                  m f.g.T       h.i.M j.k.l.b 9 ] m.n.o.p.M q.                                  ",
"                [ + y + y r.s.t.u.v.w.M x.y.z.A.B.C.s.N M D.                                    ",
"                    E.F.d G.O M H.H.I.J.t.M M N N N M M t.K.                                    ",
"                            L.M.N.O.P.Q.M R.S.T.U.M V.W.                                        ",
"                            X.+ a Y.M Z.`. +.+++                                                ",
"                            X.+ r.@+M #+$+%+&+                                                  ",
"                            *+r.C.H.=+-+;+>+,+                                                  ",
"                              '+N M )+!+&+~+                                                    ",
"                              {+M M ]+,+                                                        ",
"                              ^+M /+                                                            ",
"                              (+M _+                                                            ",
"                              (+M :+                                                            ",
"                              <+M                                                               ",
"                              [+}+                                                              ",
"                              |+1+                                                              ",
"                              2+3+                                                              ",
"                              4+5+                                                              ",
"                              *.                                                                ",
"                                                                                                ",
"                                                                                                ",
"                                                                                                ",
"                                                                                                ",
"                                                                                                ",
"                                                                                                ",
"                                                                                                "};
